<svg width="403" height="403" fill="none" xmlns="http://www.w3.org/2000/svg"><path d="M190.713 54.667c2.555-11.55 19.019-11.55 21.574 0 2.603 11.767 18.279 14.25 24.391 3.863 5.998-10.194 21.657-5.106 20.518 6.667-1.161 11.995 12.981 19.2 22.003 11.211 8.855-7.842 22.176 1.836 17.455 12.681-4.812 11.05 6.411 22.272 17.461 17.462 10.845-4.722 20.523 8.598 12.681 17.454-7.99 9.022-.785 23.163 11.211 22.003 11.774-1.14 16.862 14.519 6.667 20.518-10.387 6.112-7.905 21.788 3.863 24.391 11.549 2.554 11.549 19.019 0 21.574-11.768 2.602-14.25 18.279-3.863 24.391 10.195 5.998 5.107 21.657-6.667 20.518-11.996-1.161-19.201 12.981-11.211 22.003 7.842 8.855-1.836 22.175-12.681 17.454-11.05-4.811-22.273 6.412-17.461 17.462 4.721 10.844-8.6 20.523-17.455 12.681-9.022-7.991-23.164-.784-22.003 11.21 1.139 11.774-14.52 16.862-20.518 6.668-6.112-10.387-21.788-7.904-24.391 3.862-2.555 11.55-19.019 11.55-21.574 0-2.603-11.766-18.279-14.249-24.391-3.862-5.998 10.194-21.657 5.106-20.518-6.668 1.161-11.994-12.98-19.201-22.003-11.21-8.855 7.842-22.176-1.837-17.454-12.681 4.811-11.05-6.412-22.273-17.462-17.462-10.845 4.721-20.523-8.599-12.68-17.454 7.99-9.022.784-23.164-11.212-22.003-11.773 1.139-16.861-14.52-6.667-20.518 10.387-6.112 7.904-21.789-3.863-24.391-11.549-2.555-11.549-19.02 0-21.574 11.767-2.603 14.25-18.279 3.863-24.391-10.194-5.999-5.106-21.658 6.667-20.518 11.996 1.16 19.201-12.981 11.211-22.003-7.842-8.856 1.836-22.176 12.681-17.454 11.05 4.81 22.273-6.412 17.462-17.462-4.722-10.845 8.599-20.523 17.454-12.681 9.023 7.99 23.164.784 22.003-11.211-1.139-11.773 14.52-16.861 20.518-6.667 6.112 10.387 21.788 7.904 24.391-3.863z" stroke="#40464F" stroke-width="2"/><path d="M199.366 78.37c.199-2.64 4.069-2.64 4.268 0 .383 5.1 7.721 5.485 8.636.452.473-2.604 4.322-2.2 4.243.446-.151 5.113 7.108 6.263 8.543 1.353.743-2.54 4.529-1.736 4.173.887-.685 5.07 6.414 6.972 8.354 2.238 1.004-2.448 4.685-1.252 4.058 1.319-1.211 4.97 5.65 7.604 8.075 3.1 1.254-2.33 4.79-.757 3.898 1.735-1.725 4.816 4.823 8.152 7.705 3.926 1.491-2.186 4.843-.25 3.696 2.134-2.219 4.609 3.945 8.612 7.253 4.71 1.712-2.018 4.843.257 3.452 2.508-2.688 4.353 3.023 8.977 6.722 5.443 1.913-1.828 4.788.761 3.171 2.855-3.129 4.047 2.067 9.244 6.115 6.116 2.093-1.619 4.683 1.257 2.855 3.17-3.535 3.698 1.09 9.41 5.443 6.721 2.252-1.39 4.527 1.741 2.508 3.452-3.902 3.31.1 9.472 4.711 7.254 2.383-1.148 4.318 2.204 2.132 3.695-4.226 2.883-.889 9.431 3.927 7.706 2.491-.892 4.066 2.643 1.735 3.898-4.504 2.425-1.87 9.286 3.1 8.074 2.571-.626 3.767 3.054 1.319 4.058-4.734 1.941-2.832 9.04 2.238 8.354 2.622-.354 3.427 3.432.887 4.174-4.91 1.436-3.761 8.694 1.354 8.542 2.644-.079 3.049 3.77.445 4.243-5.034.915-4.649 8.254.453 8.637 2.639.199 2.639 4.069 0 4.267-5.102.384-5.487 7.722-.453 8.637 2.604.473 2.199 4.322-.445 4.243-5.115-.152-6.264 7.107-1.354 8.543 2.54.742 1.735 4.528-.887 4.174-5.07-.687-6.972 6.412-2.238 8.354 2.448 1.003 1.252 4.684-1.319 4.058-4.97-1.213-7.604 5.648-3.1 8.074 2.331 1.254.756 4.789-1.735 3.898-4.816-1.725-8.153 4.823-3.927 7.706 2.186 1.491.251 4.842-2.132 3.694-4.611-2.218-8.613 3.945-4.711 7.254 2.019 1.711-.256 4.843-2.508 3.452-4.353-2.688-8.978 3.023-5.443 6.721 1.828 1.913-.762 4.789-2.855 3.171-4.048-3.129-9.244 2.068-6.115 6.116 1.617 2.094-1.258 4.683-3.171 2.855-3.699-3.535-9.41 1.09-6.722 5.442 1.391 2.252-1.74 4.527-3.452 2.508-3.308-3.901-9.472.101-7.253 4.711 1.147 2.385-2.205 4.32-3.696 2.134-2.882-4.227-9.43-.891-7.705 3.926.892 2.492-2.644 4.065-3.898 1.736-2.425-4.505-9.286-1.871-8.075 3.099.627 2.57-3.054 3.766-4.058 1.318-1.94-4.733-9.039-2.831-8.354 2.238.356 2.624-3.43 3.427-4.173.888-1.435-4.91-8.694-3.761-8.543 1.353.079 2.645-3.77 3.049-4.243.446-.915-5.034-8.253-4.649-8.636.453-.199 2.638-4.069 2.638-4.268 0-.383-5.102-7.721-5.487-8.636-.453-.473 2.603-4.322 2.199-4.243-.446.151-5.114-7.108-6.263-8.543-1.353-.743 2.539-4.529 1.736-4.173-.888.685-5.069-6.414-6.971-8.354-2.238-1.004 2.448-4.686 1.252-4.058-1.318 1.211-4.97-5.65-7.604-8.075-3.099-1.254 2.329-4.79.756-3.898-1.736 1.725-4.817-4.823-8.153-7.705-3.926-1.491 2.186-4.843.251-3.696-2.134 2.219-4.61-3.945-8.612-7.253-4.711-1.712 2.019-4.843-.256-3.452-2.508 2.688-4.352-3.023-8.977-6.722-5.442-1.913 1.828-4.788-.761-3.171-2.855 3.129-4.048-2.067-9.245-6.115-6.116-2.094 1.618-4.683-1.258-2.855-3.171 3.535-3.698-1.09-9.41-5.443-6.721-2.251 1.391-4.526-1.741-2.508-3.452 3.902-3.309-.101-9.472-4.71-7.254-2.385 1.148-4.32-2.203-2.134-3.694 4.227-2.883.89-9.431-3.926-7.706-2.491.891-4.066-2.644-1.736-3.898 4.505-2.426 1.871-9.287-3.1-8.074-2.57.626-3.766-3.055-1.318-4.058 4.734-1.942 2.832-9.041-2.238-8.354-2.622.354-3.427-3.432-.887-4.174 4.91-1.436 3.76-8.695-1.353-8.543-2.645.079-3.05-3.77-.446-4.243 5.034-.915 4.649-8.253-.453-8.637-2.638-.198-2.638-4.068 0-4.267 5.102-.383 5.486-7.722.453-8.637-2.604-.473-2.199-4.322.446-4.243 5.114.152 6.263-7.106 1.353-8.542-2.54-.742-1.735-4.528.887-4.174 5.07.686 6.972-6.413 2.238-8.354-2.448-1.004-1.252-4.684 1.319-4.058 4.97 1.212 7.604-5.649 3.1-8.074-2.33-1.255-.756-4.79 1.735-3.898 4.816 1.725 8.153-4.823 3.926-7.706-2.186-1.491-.25-4.843 2.134-3.695 4.61 2.218 8.612-3.944 4.71-7.254-2.018-1.711.257-4.842 2.508-3.452 4.353 2.689 8.978-3.023 5.443-6.721-1.828-1.913.761-4.789 2.855-3.17 4.048 3.128 9.244-2.069 6.115-6.116-1.617-2.094 1.258-4.683 3.171-2.855 3.699 3.534 9.41-1.09 6.722-5.443-1.391-2.251 1.74-4.526 3.452-2.508 3.308 3.902 9.472-.101 7.253-4.71-1.147-2.385 2.205-4.32 3.696-2.134 2.882 4.227 9.43.89 7.705-3.926-.892-2.492 2.644-4.066 3.898-1.736 2.425 4.505 9.286 1.871 8.075-3.1-.628-2.57 3.054-3.766 4.058-1.318 1.94 4.734 9.039 2.832 8.354-2.238-.356-2.623 3.43-3.427 4.173-.887 1.435 4.91 8.694 3.76 8.543-1.353-.079-2.645 3.77-3.05 4.243-.446.915 5.033 8.253 4.649 8.636-.453z" stroke="#40464F" stroke-width="2"/><path d="M198.248 99.425c.77-3.482 5.734-3.482 6.504 0l4.497 20.331c1.089 4.923 7.647 5.962 10.204 1.617l10.56-17.947c1.809-3.073 6.529-1.54 6.186 2.01l-2.006 20.725c-.485 5.019 5.431 8.034 9.206 4.691l15.588-13.805c2.67-2.364 6.685.553 5.262 3.823l-8.312 19.092c-2.013 4.623 2.682 9.318 7.305 7.305l19.092-8.312c3.27-1.423 6.187 2.592 3.823 5.261l-13.806 15.59c-3.342 3.774-.327 9.69 4.691 9.204l20.726-2.005c3.549-.343 5.084 4.378 2.01 6.186l-17.947 10.559c-4.345 2.557-3.306 9.116 1.617 10.205l20.331 4.496c3.481.771 3.481 5.735 0 6.505l-20.331 4.497c-4.923 1.088-5.962 7.647-1.617 10.204l17.947 10.56c3.074 1.808 1.539 6.529-2.01 6.185l-20.726-2.005c-5.018-.486-8.033 5.43-4.691 9.205l13.806 15.589c2.364 2.669-.553 6.685-3.823 5.261l-19.092-8.312c-4.623-2.012-9.318 2.684-7.305 7.305l8.312 19.092c1.423 3.27-2.592 6.187-5.262 3.824l-15.588-13.805c-3.775-3.343-9.691-.329-9.206 4.69l2.006 20.726c.343 3.55-4.377 5.083-6.186 2.01l-10.56-17.946c-2.557-4.347-9.115-3.308-10.204 1.615l-4.497 20.332c-.77 3.482-5.734 3.482-6.504 0l-4.497-20.332c-1.089-4.923-7.647-5.962-10.204-1.615l-10.56 17.946c-1.809 3.073-6.529 1.54-6.186-2.01l2.006-20.726c.485-5.019-5.431-8.033-9.206-4.69l-15.588 13.805c-2.67 2.363-6.685-.554-5.262-3.824l8.312-19.09c2.013-4.623-2.682-9.319-7.305-7.307l-19.092 8.312c-3.27 1.424-6.187-2.592-3.823-5.261l13.806-15.589c3.342-3.775.327-9.691-4.691-9.205l-20.726 2.005c-3.549.344-5.083-4.377-2.01-6.185l17.947-10.56c4.345-2.557 3.307-9.116-1.617-10.204l-20.33-4.497c-3.483-.77-3.482-5.734 0-6.505l20.33-4.496c4.923-1.089 5.962-7.648 1.617-10.205l-17.947-10.559c-3.073-1.808-1.539-6.529 2.01-6.186l20.726 2.005c5.018.486 8.033-5.43 4.691-9.204l-13.806-15.59c-2.364-2.669.553-6.684 3.823-5.261l19.092 8.312c4.623 2.013 9.318-2.682 7.305-7.305l-8.312-19.092c-1.423-3.27 2.592-6.187 5.262-3.823l15.588 13.805c3.775 3.343 9.691.328 9.206-4.691l-2.006-20.725c-.343-3.55 4.377-5.083 6.186-2.01l10.56 17.947c2.557 4.345 9.115 3.306 10.204-1.617l4.497-20.331z" stroke="#40464F" stroke-width="2"/></svg>